<svg xmlns="http://www.w3.org/2000/svg" viewBox="0 0 64 64" role="img" aria-label="国风鹤羽图标">
  <defs>
    <linearGradient id="bg" x1="10" y1="8" x2="54" y2="56" gradientUnits="userSpaceOnUse">
      <stop offset="0" stop-color="#0b2a3a"/>
      <stop offset="1" stop-color="#123b4d"/>
    </linearGradient>
  </defs>
  <rect x="4" y="4" width="56" height="56" rx="14" fill="url(#bg)"/>
  <circle cx="32" cy="32" r="20" fill="none" stroke="#d5c08a" stroke-width="1.5" opacity="0.7"/>
  <path d="M18 40c8-2 13-9 15-18 4 6 8 11 16 14-7 1-12 5-15 12-2-4-6-7-16-8z" fill="#f4efe3"/>
  <path d="M33 20c2 3 5 5 9 7-4 1-7 3-9 7-1-3-3-5-7-6 3-1 6-3 7-8z" fill="#8f1d1d"/>
</svg>
